<svg xmlns="http://www.w3.org/2000/svg">
  <symbol id="aparat" viewBox="0 0 18 18.008037567138672" fill="none">
    <path d="M7.76795 0.526045L6.11076 0.093963C5.75681 -0.000340716 5.38775 -0.0239588 5.02466 0.0244589C4.66158 0.0728766 4.31161 0.192381 3.99474 0.376139C3.67787 0.559898 3.40033 0.804307 3.17798 1.09539C2.95563 1.38648 2.79283 1.71854 2.69889 2.07258L2.28525 3.63493C3.64932 1.93718 5.61071 0.824997 7.76795 0.526045Z" fill="currentColor"></path>
    <path d="M0.499051 10.3612L0.0933157 11.8919C-0.0963453 12.6064 0.00555934 13.367 0.376615 14.0063C0.747671 14.6456 1.35749 15.1114 2.07194 15.3012L3.65273 15.7227C1.9648 14.3956 0.838794 12.4813 0.499051 10.3612Z" fill="currentColor"></path>
    <path d="M15.9277 2.69963L14.1545 2.22803C15.0505 2.91722 15.8007 3.7775 16.3615 4.75893C16.9223 5.74037 17.2826 6.82341 17.4215 7.94521L17.9089 6.10096C18.0961 5.38723 17.9927 4.6284 17.6213 3.99081C17.2499 3.35322 16.6408 2.8889 15.9277 2.69963Z" fill="currentColor"></path>
    <path d="M10.192 17.4563L11.8914 17.9147C12.6058 18.1044 13.3664 18.0024 14.0057 17.6314C14.6451 17.2603 15.1108 16.6505 15.3006 15.9361L15.7801 14.134C14.4281 15.9347 12.4198 17.1287 10.192 17.4563Z" fill="currentColor"></path>
    <path d="M9.00112 1.19525C7.45703 1.19473 5.94747 1.65213 4.66336 2.5096C3.37925 3.36707 2.37826 4.58609 1.78701 6.01248C1.19575 7.43888 1.04078 9.00858 1.3417 10.5231C1.64261 12.0375 2.3859 13.4288 3.47755 14.5208C4.5692 15.6128 5.96017 16.3566 7.47455 16.658C8.98892 16.9594 10.5587 16.805 11.9853 16.2142C13.4119 15.6234 14.6312 14.6228 15.4891 13.339C16.347 12.0552 16.8049 10.5458 16.8049 9.00171C16.8049 6.93177 15.9828 4.94656 14.5194 3.48264C13.056 2.01872 11.0711 1.19595 9.00112 1.19525ZM4.58018 5.08926C4.66365 4.65646 4.87357 4.25812 5.1834 3.94461C5.49323 3.6311 5.88906 3.41649 6.32085 3.32791C6.75264 3.23933 7.20099 3.28077 7.60923 3.44698C8.01747 3.61318 8.36727 3.8967 8.6144 4.26169C8.86152 4.62667 8.99489 5.05673 8.99763 5.4975C9.00037 5.93827 8.87236 6.36996 8.62979 6.73798C8.38722 7.10601 8.04097 7.39386 7.63483 7.56512C7.22869 7.73639 6.78088 7.7834 6.34803 7.7002C6.06047 7.64492 5.78662 7.53353 5.54213 7.37238C5.29764 7.21124 5.0873 7.00349 4.92312 6.76102C4.75895 6.51856 4.64416 6.24611 4.58532 5.95926C4.52647 5.67242 4.52473 5.37678 4.58018 5.08926ZM7.82343 11.834C7.73937 12.2666 7.52893 12.6646 7.21871 12.9777C6.90849 13.2908 6.51242 13.5048 6.08057 13.5929C5.64871 13.6809 5.20045 13.6389 4.79245 13.4722C4.38445 13.3055 4.03503 13.0216 3.78835 12.6564C3.54167 12.2911 3.4088 11.861 3.40655 11.4202C3.4043 10.9795 3.53276 10.548 3.77569 10.1803C4.01863 9.81252 4.36513 9.52506 4.7714 9.35421C5.17768 9.18336 5.62548 9.13679 6.05822 9.22039C6.3458 9.27595 6.61962 9.38765 6.86401 9.5491C7.10841 9.71055 7.31858 9.91858 7.48252 10.1613C7.64646 10.404 7.76095 10.6767 7.81945 10.9637C7.87794 11.2507 7.8793 11.5464 7.82343 11.834ZM8.76927 10.0292C8.57716 9.99206 8.40036 9.89884 8.26117 9.76132C8.12198 9.62379 8.02663 9.44813 7.98716 9.25648C7.94769 9.06483 7.96585 8.86579 8.03936 8.68445C8.11288 8.50312 8.23844 8.34762 8.40023 8.23756C8.56201 8.1275 8.75276 8.06782 8.94843 8.06604C9.14409 8.06427 9.33589 8.12048 9.49965 8.22758C9.66341 8.33468 9.79178 8.48788 9.86857 8.66785C9.94536 8.84782 9.96714 9.0465 9.93115 9.23883C9.90713 9.3672 9.85796 9.48956 9.78647 9.59886C9.71499 9.70816 9.62259 9.80225 9.51461 9.8757C9.40663 9.94916 9.28519 10.0005 9.15727 10.0269C9.02935 10.0532 8.89749 10.054 8.76927 10.0292ZM13.4194 12.9089C13.336 13.3417 13.126 13.74 12.8162 14.0535C12.5064 14.3671 12.1105 14.5817 11.6788 14.6702C11.247 14.7588 10.7986 14.7174 10.3904 14.5512C9.98213 14.385 9.63233 14.1015 9.3852 13.7365C9.13808 13.3715 9.00471 12.9414 9.00197 12.5007C8.99923 12.0599 9.12724 11.6282 9.36981 11.2602C9.61238 10.8921 9.95863 10.6043 10.3648 10.433C10.7709 10.2618 11.2187 10.2148 11.6516 10.298C11.9391 10.3532 12.213 10.4646 12.4575 10.6258C12.702 10.7869 12.9123 10.9947 13.0765 11.2371C13.2407 11.4796 13.3554 11.752 13.4143 12.0389C13.4731 12.3257 13.4749 12.6214 13.4194 12.9089ZM11.944 8.77777C11.5112 8.6943 11.1129 8.48438 10.7994 8.17455C10.4859 7.86471 10.2712 7.46888 10.1827 7.0371C10.0941 6.60531 10.1355 6.15696 10.3017 5.74872C10.4679 5.34047 10.7515 4.99068 11.1164 4.74355C11.4814 4.49642 11.9115 4.36306 12.3523 4.36032C12.793 4.35758 13.2247 4.48559 13.5927 4.72816C13.9608 4.97073 14.2486 5.31697 14.4199 5.72312C14.5912 6.12926 14.6382 6.57707 14.555 7.00992C14.5 7.29771 14.3888 7.57185 14.2278 7.81663C14.0668 8.06142 13.8591 8.27206 13.6166 8.4365C13.3741 8.60094 13.1015 8.71596 12.8145 8.77497C12.5275 8.83398 12.2317 8.83583 11.944 8.7804V8.77777Z" fill="currentColor"></path>
  </symbol>
  <symbol id="youtube" viewBox="0 0 18 18" fill="none">
    <path d="M9 2C0.1548 2 0 2.78581 0 8.92308C0 15.0603 0.1548 15.8462 9 15.8462C17.8452 15.8462 18 15.0603 18 8.92308C18 2.78581 17.8452 2 9 2ZM11.8845 9.22338L7.8435 11.1079C7.4898 11.2715 7.2 11.0881 7.2 10.6979V7.14825C7.2 6.75894 7.4898 6.57463 7.8435 6.73826L11.8845 8.62278C12.2382 8.78821 12.2382 9.05794 11.8845 9.22338Z" fill="currentColor"></path>
  </symbol>
  <symbol id="instagram" viewBox="0 0 18 18" fill="none">
    <path d="M9.92521 0.00113989C10.5819 -0.00145435 11.2387 0.00534026 11.8952 0.0215216L12.0698 0.0280067C12.2714 0.0354182 12.4703 0.0446825 12.7106 0.0557998C13.6681 0.102122 14.3215 0.257764 14.8948 0.486594C15.4887 0.72191 15.9891 1.0406 16.4895 1.5557C16.947 2.01856 17.3011 2.57844 17.5271 3.19643C17.7494 3.78657 17.9006 4.46009 17.9456 5.44582C17.9564 5.69225 17.9654 5.89792 17.9726 6.10545L17.978 6.28518C17.994 6.96073 18.0009 7.63648 17.9987 8.31223L17.9996 9.00335V10.217C18.0018 10.893 17.9949 11.5691 17.9789 12.245L17.9735 12.4247C17.9663 12.6322 17.9573 12.837 17.9465 13.0843C17.9015 14.07 17.7485 14.7426 17.5271 15.3328C17.3018 15.9514 16.9476 16.5118 16.4895 16.9744C16.0395 17.4454 15.4953 17.8098 14.8948 18.0426C14.3215 18.2714 13.6681 18.4271 12.7106 18.4734C12.4703 18.4845 12.2714 18.4938 12.0698 18.5012L11.8952 18.5068C11.2387 18.5232 10.5819 18.5303 9.92521 18.5281L9.25384 18.529H8.0758C7.41907 18.5313 6.76235 18.5242 6.10581 18.5077L5.93122 18.5021C5.71758 18.4942 5.50398 18.4849 5.29045 18.4743C4.3329 18.428 3.67953 18.2705 3.10536 18.0426C2.50481 17.8104 1.96083 17.4458 1.51154 16.9744C1.05351 16.5115 0.699085 15.9512 0.472995 15.3328C0.250706 14.7426 0.0995141 14.07 0.0545165 13.0843C0.0444936 12.8645 0.035494 12.6446 0.0275179 12.4247L0.0230182 12.245C0.00642628 11.5691 -0.00107414 10.893 0.000519274 10.217V8.31223C-0.00199247 7.63648 0.0046079 6.96073 0.0203183 6.28518L0.026618 6.10545C0.0338176 5.89792 0.0428171 5.69225 0.0536166 5.44582C0.0986143 4.45916 0.249806 3.7875 0.472095 3.19643C0.698319 2.57814 1.05343 2.01841 1.51244 1.55663C1.96142 1.08484 2.50506 0.719661 3.10536 0.486594C3.67953 0.257764 4.332 0.102122 5.29045 0.0557998L5.93122 0.0280067L6.10581 0.0233746C6.76204 0.00630291 7.41847 -0.00141824 8.07491 0.000213514L9.92521 0.00113989ZM9.00006 4.63334C8.40384 4.62465 7.8119 4.73804 7.25863 4.96692C6.70535 5.19579 6.20178 5.53557 5.77718 5.96653C5.35258 6.39749 5.01542 6.91102 4.78529 7.47728C4.55516 8.04355 4.43665 8.65125 4.43665 9.26507C4.43665 9.87889 4.55516 10.4866 4.78529 11.0529C5.01542 11.6191 5.35258 12.1326 5.77718 12.5636C6.20178 12.9946 6.70535 13.3343 7.25863 13.5632C7.8119 13.7921 8.40384 13.9055 9.00006 13.8968C10.1935 13.8968 11.338 13.4088 12.1819 12.5401C13.0257 11.6714 13.4998 10.4931 13.4998 9.2646C13.4998 8.03607 13.0257 6.85785 12.1819 5.98915C11.338 5.12044 10.1935 4.63334 9.00006 4.63334ZM9.00006 6.48621C9.3587 6.47941 9.71506 6.54624 10.0483 6.68281C10.3816 6.81938 10.6851 7.02294 10.9411 7.2816C11.197 7.54027 11.4004 7.84885 11.5392 8.18932C11.6781 8.5298 11.7496 8.89534 11.7497 9.2646C11.7497 9.63385 11.6783 9.99942 11.5396 10.3399C11.4009 10.6805 11.1976 10.9891 10.9417 11.2479C10.6858 11.5066 10.3824 11.7103 10.0492 11.847C9.71594 11.9836 9.3596 12.0506 9.00096 12.0439C8.28491 12.0439 7.59819 11.7511 7.09187 11.2299C6.58555 10.7087 6.3011 10.0017 6.3011 9.2646C6.3011 8.52748 6.58555 7.82055 7.09187 7.29933C7.59819 6.77811 8.28491 6.48529 9.00096 6.48529L9.00006 6.48621ZM13.7248 3.24368C13.4345 3.25564 13.1599 3.38278 12.9586 3.59848C12.7573 3.81417 12.6449 4.10168 12.6449 4.4008C12.6449 4.69991 12.7573 4.98743 12.9586 5.20312C13.1599 5.41882 13.4345 5.54596 13.7248 5.55792C14.0232 5.55792 14.3093 5.43591 14.5203 5.21874C14.7312 5.00156 14.8498 4.70701 14.8498 4.39987C14.8498 4.09274 14.7312 3.79818 14.5203 3.58101C14.3093 3.36383 14.0232 3.24182 13.7248 3.24182V3.24368Z" fill="currentColor"></path>
  </symbol>
  <symbol id="in" viewBox="0 0 18 18" fill="none">
    <path d="M3.75314 18H0.211871V5.10771H3.75314V18ZM0 1.77146C0 1.2597 0.174878 0.836523 0.524633 0.501914C0.881114 0.167305 1.36539 0 1.97746 0C2.58281 0 3.06372 0.167305 3.4202 0.501914C3.77668 0.836523 3.95492 1.2597 3.95492 1.77146C3.95492 2.29634 3.77332 2.72608 3.41011 3.06069C3.04691 3.3953 2.56935 3.5626 1.97746 3.5626C1.38557 3.5626 0.908018 3.3953 0.544811 3.06069C0.181604 2.72608 0 2.29634 0 1.77146Z" fill="currentColor"></path>
    <path d="M9.90855 5.10771L10.0195 6.60361C10.9679 5.44888 12.2358 4.87151 13.8231 4.87151C15.2221 4.87151 16.2613 5.27501 16.9406 6.08201C17.6267 6.88245 17.9798 8.07983 18 9.67414V18H14.4688V9.75287C14.4688 9.0246 14.304 8.49645 13.9745 8.1684C13.6516 7.84035 13.1102 7.67633 12.3501 7.67633C11.3614 7.67633 10.6181 8.08639 10.1204 8.90651V18H6.58924V5.10771H9.90855Z" fill="currentColor"></path>
  </symbol>
  <symbol id="x" viewBox="0 0 18 18" fill="none">
    <path fill-rule="evenodd" clip-rule="evenodd" d="M16.7077 16.1639L10.6769 7.60069L10.6768 7.60047L17.362 0H15.8331L14.5239 1.48075L9.9949 6.63206L5.67954 0.507897L5.32193 0H0.0214844L1.31402 1.83613L7.05069 9.9815L7.05059 9.98161L0 17.9999H1.52892L7.73247 10.9485L7.73257 10.9484L7.73274 10.9487L12.3422 17.4936L12.6998 18H18.0018L16.7077 16.1639ZM9.18574 7.55161L4.69157 1.17127H2.30198L7.85851 9.05923L8.54038 10.0276L13.3287 16.8272V16.8287H15.7198L9.86777 8.52024L9.86761 8.52002L9.86742 8.52024L9.18555 7.55183L9.18574 7.55161Z" fill="currentColor"></path>
  </symbol>
  <symbol id="meta" width="18" height="18" viewBox="0 0 18 18" fill="none">
    <path d="M12.9176 0C11.4416 0 10.2875 1.11241 9.24353 2.52571C7.80988 0.697112 6.60918 0 5.17129 0C2.24471 0 0 3.81399 0 7.84834C0 10.374 1.22188 11.9674 3.26753 11.9674C4.73929 11.9674 5.79812 11.2725 7.68071 7.97971C7.68071 7.97971 8.46635 6.59396 9.00424 5.63835C9.19271 5.94346 9.39176 6.27189 9.60141 6.62574L10.4845 8.11108C12.204 10.9928 13.1633 11.9674 14.8976 11.9674C16.8904 11.9674 18 10.3529 18 7.77418C18 3.54913 15.7066 0 12.9176 0ZM6.24494 7.08978C4.71812 9.48412 4.19082 10.0202 3.34165 10.0202C2.46706 10.0202 1.94824 9.25104 1.94824 7.88224C1.94824 4.95183 3.40941 1.95573 5.148 1.95573C6.09035 1.95573 6.87812 2.50028 8.08518 4.22929C6.93953 5.98796 6.24494 7.08978 6.24494 7.08978ZM12.0049 6.7889L10.9504 5.02811C10.6645 4.56407 10.3913 4.13606 10.1266 3.74407C11.0774 2.27568 11.8631 1.54255 12.7948 1.54255C14.7325 1.54255 16.2847 4.3988 16.2847 7.90555C16.2847 9.24256 15.8464 10.0181 14.94 10.0181C14.0696 10.0202 13.6546 9.44598 12.0049 6.7889Z" fill="currentColor"/>
  </symbol>
</svg>